<?xml version="1.0" encoding="utf-8" standalone="no"?>
<!DOCTYPE svg PUBLIC "-//W3C//DTD SVG 1.1//EN"
  "http://www.w3.org/Graphics/SVG/1.1/DTD/svg11.dtd">
<!-- Created with matplotlib (https://matplotlib.org/) -->
<svg height="345.6pt" version="1.1" viewBox="0 0 460.8 345.6" width="460.8pt" xmlns="http://www.w3.org/2000/svg" xmlns:xlink="http://www.w3.org/1999/xlink">
 <metadata>
  <rdf:RDF xmlns:cc="http://creativecommons.org/ns#" xmlns:dc="http://purl.org/dc/elements/1.1/" xmlns:rdf="http://www.w3.org/1999/02/22-rdf-syntax-ns#">
   <cc:Work>
    <dc:type rdf:resource="http://purl.org/dc/dcmitype/StillImage"/>
    <dc:date>2020-12-13T18:40:40.244919</dc:date>
    <dc:format>image/svg+xml</dc:format>
    <dc:creator>
     <cc:Agent>
      <dc:title>Matplotlib v3.3.3, https://matplotlib.org/</dc:title>
     </cc:Agent>
    </dc:creator>
   </cc:Work>
  </rdf:RDF>
 </metadata>
 <defs>
  <style type="text/css">*{stroke-linecap:butt;stroke-linejoin:round;}</style>
 </defs>
 <g id="figure_1">
  <g id="patch_1">
   <path d="M 0 345.6 
L 460.8 345.6 
L 460.8 0 
L 0 0 
z
" style="fill:#ffffff;"/>
  </g>
  <g id="axes_1">
   <g id="patch_2">
    <path d="M 57.6 307.584 
L 414.72 307.584 
L 414.72 41.472 
L 57.6 41.472 
z
" style="fill:#ffffff;"/>
   </g>
   <g id="PathCollection_1">
    <defs>
     <path d="M 0 3 
C 0.795609 3 1.55874 2.683901 2.12132 2.12132 
C 2.683901 1.55874 3 0.795609 3 0 
C 3 -0.795609 2.683901 -1.55874 2.12132 -2.12132 
C 1.55874 -2.683901 0.795609 -3 0 -3 
C -0.795609 -3 -1.55874 -2.683901 -2.12132 -2.12132 
C -2.683901 -1.55874 -3 -0.795609 -3 0 
C -3 0.795609 -2.683901 1.55874 -2.12132 2.12132 
C -1.55874 2.683901 -0.795609 3 0 3 
z
" id="m8332ba6c74" style="stroke:#0000ff;"/>
    </defs>
    <g clip-path="url(#p0501c4b2de)">
     <use style="fill:#0000ff;stroke:#0000ff;" x="237.799669" xlink:href="#m8332ba6c74" y="181.1808"/>
    </g>
   </g>
   <g id="PathCollection_2">
    <defs>
     <path d="M 0 3 
C 0.795609 3 1.55874 2.683901 2.12132 2.12132 
C 2.683901 1.55874 3 0.795609 3 0 
C 3 -0.795609 2.683901 -1.55874 2.12132 -2.12132 
C 1.55874 -2.683901 0.795609 -3 0 -3 
C -0.795609 -3 -1.55874 -2.683901 -2.12132 -2.12132 
C -2.683901 -1.55874 -3 -0.795609 -3 0 
C -3 0.795609 -2.683901 1.55874 -2.12132 2.12132 
C -1.55874 2.683901 -0.795609 3 0 3 
z
" id="m2e94b31fe3" style="stroke:#ffa500;"/>
    </defs>
    <g clip-path="url(#p0501c4b2de)">
     <use style="fill:#ffa500;stroke:#ffa500;" x="270.593058" xlink:href="#m2e94b31fe3" y="187.8336"/>
    </g>
   </g>
   <g id="PathCollection_3">
    <defs>
     <path d="M 0 3 
C 0.795609 3 1.55874 2.683901 2.12132 2.12132 
C 2.683901 1.55874 3 0.795609 3 0 
C 3 -0.795609 2.683901 -1.55874 2.12132 -2.12132 
C 1.55874 -2.683901 0.795609 -3 0 -3 
C -0.795609 -3 -1.55874 -2.683901 -2.12132 -2.12132 
C -2.683901 -1.55874 -3 -0.795609 -3 0 
C -3 0.795609 -2.683901 1.55874 -2.12132 2.12132 
C -1.55874 2.683901 -0.795609 3 0 3 
z
" id="m45e306fb73" style="stroke:#800080;"/>
    </defs>
    <g clip-path="url(#p0501c4b2de)">
     <use style="fill:#800080;stroke:#800080;" x="237.799669" xlink:href="#m45e306fb73" y="161.2224"/>
    </g>
   </g>
   <g id="PathCollection_4">
    <defs>
     <path d="M 0 3 
C 0.795609 3 1.55874 2.683901 2.12132 2.12132 
C 2.683901 1.55874 3 0.795609 3 0 
C 3 -0.795609 2.683901 -1.55874 2.12132 -2.12132 
C 1.55874 -2.683901 0.795609 -3 0 -3 
C -0.795609 -3 -1.55874 -2.683901 -2.12132 -2.12132 
C -2.683901 -1.55874 -3 -0.795609 -3 0 
C -3 0.795609 -2.683901 1.55874 -2.12132 2.12132 
C -1.55874 2.683901 -0.795609 3 0 3 
z
" id="m1c9f828ebc" style="stroke:#008000;"/>
    </defs>
    <g clip-path="url(#p0501c4b2de)">
     <use style="fill:#008000;stroke:#008000;" x="237.799669" xlink:href="#m1c9f828ebc" y="187.8336"/>
    </g>
   </g>
   <g id="PathCollection_5">
    <defs>
     <path d="M 0 3 
C 0.795609 3 1.55874 2.683901 2.12132 2.12132 
C 2.683901 1.55874 3 0.795609 3 0 
C 3 -0.795609 2.683901 -1.55874 2.12132 -2.12132 
C 1.55874 -2.683901 0.795609 -3 0 -3 
C -0.795609 -3 -1.55874 -2.683901 -2.12132 -2.12132 
C -2.683901 -1.55874 -3 -0.795609 -3 0 
C -3 0.795609 -2.683901 1.55874 -2.12132 2.12132 
C -1.55874 2.683901 -0.795609 3 0 3 
z
" id="m0c54162786" style="stroke:#ffc0cb;"/>
    </defs>
    <g clip-path="url(#p0501c4b2de)">
     <use style="fill:#ffc0cb;stroke:#ffc0cb;" x="237.799669" xlink:href="#m0c54162786" y="161.2224"/>
    </g>
   </g>
   <g id="PathCollection_6">
    <defs>
     <path d="M 0 3 
C 0.795609 3 1.55874 2.683901 2.12132 2.12132 
C 2.683901 1.55874 3 0.795609 3 0 
C 3 -0.795609 2.683901 -1.55874 2.12132 -2.12132 
C 1.55874 -2.683901 0.795609 -3 0 -3 
C -0.795609 -3 -1.55874 -2.683901 -2.12132 -2.12132 
C -2.683901 -1.55874 -3 -0.795609 -3 0 
C -3 0.795609 -2.683901 1.55874 -2.12132 2.12132 
C -1.55874 2.683901 -0.795609 3 0 3 
z
" id="me9ae5468d1" style="stroke:#808080;"/>
    </defs>
    <g clip-path="url(#p0501c4b2de)">
     <use style="fill:#808080;stroke:#808080;" x="237.799669" xlink:href="#me9ae5468d1" y="181.1808"/>
    </g>
   </g>
   <g id="PathCollection_7">
    <defs>
     <path d="M 0 3 
C 0.795609 3 1.55874 2.683901 2.12132 2.12132 
C 2.683901 1.55874 3 0.795609 3 0 
C 3 -0.795609 2.683901 -1.55874 2.12132 -2.12132 
C 1.55874 -2.683901 0.795609 -3 0 -3 
C -0.795609 -3 -1.55874 -2.683901 -2.12132 -2.12132 
C -2.683901 -1.55874 -3 -0.795609 -3 0 
C -3 0.795609 -2.683901 1.55874 -2.12132 2.12132 
C -1.55874 2.683901 -0.795609 3 0 3 
z
" id="md369696818" style="stroke:#000000;"/>
    </defs>
    <g clip-path="url(#p0501c4b2de)">
     <use style="stroke:#000000;" x="237.799669" xlink:href="#md369696818" y="170.322628"/>
    </g>
   </g>
   <g id="matplotlib.axis_1">
    <g id="xtick_1">
     <g id="line2d_1">
      <defs>
       <path d="M 0 0 
L 0 3.5 
" id="ma9e7433998" style="stroke:#000000;stroke-width:0.8;"/>
      </defs>
      <g>
       <use style="stroke:#000000;stroke-width:0.8;" x="106.626116" xlink:href="#ma9e7433998" y="307.584"/>
      </g>
     </g>
     <g id="text_1">
      <!-- −4 -->
      <g transform="translate(99.255022 322.182437)scale(0.1 -0.1)">
       <defs>
        <path d="M 10.59375 35.5 
L 73.1875 35.5 
L 73.1875 27.203125 
L 10.59375 27.203125 
z
" id="DejaVuSans-8722"/>
        <path d="M 37.796875 64.3125 
L 12.890625 25.390625 
L 37.796875 25.390625 
z
M 35.203125 72.90625 
L 47.609375 72.90625 
L 47.609375 25.390625 
L 58.015625 25.390625 
L 58.015625 17.1875 
L 47.609375 17.1875 
L 47.609375 0 
L 37.796875 0 
L 37.796875 17.1875 
L 4.890625 17.1875 
L 4.890625 26.703125 
z
" id="DejaVuSans-52"/>
       </defs>
       <use xlink:href="#DejaVuSans-8722"/>
       <use x="83.789062" xlink:href="#DejaVuSans-52"/>
      </g>
     </g>
    </g>
    <g id="xtick_2">
     <g id="line2d_2">
      <g>
       <use style="stroke:#000000;stroke-width:0.8;" x="172.212893" xlink:href="#ma9e7433998" y="307.584"/>
      </g>
     </g>
     <g id="text_2">
      <!-- −2 -->
      <g transform="translate(164.841799 322.182437)scale(0.1 -0.1)">
       <defs>
        <path d="M 19.1875 8.296875 
L 53.609375 8.296875 
L 53.609375 0 
L 7.328125 0 
L 7.328125 8.296875 
Q 12.9375 14.109375 22.625 23.890625 
Q 32.328125 33.6875 34.8125 36.53125 
Q 39.546875 41.84375 41.421875 45.53125 
Q 43.3125 49.21875 43.3125 52.78125 
Q 43.3125 58.59375 39.234375 62.25 
Q 35.15625 65.921875 28.609375 65.921875 
Q 23.96875 65.921875 18.8125 64.3125 
Q 13.671875 62.703125 7.8125 59.421875 
L 7.8125 69.390625 
Q 13.765625 71.78125 18.9375 73 
Q 24.125 74.21875 28.421875 74.21875 
Q 39.75 74.21875 46.484375 68.546875 
Q 53.21875 62.890625 53.21875 53.421875 
Q 53.21875 48.921875 51.53125 44.890625 
Q 49.859375 40.875 45.40625 35.40625 
Q 44.1875 33.984375 37.640625 27.21875 
Q 31.109375 20.453125 19.1875 8.296875 
z
" id="DejaVuSans-50"/>
       </defs>
       <use xlink:href="#DejaVuSans-8722"/>
       <use x="83.789062" xlink:href="#DejaVuSans-50"/>
      </g>
     </g>
    </g>
    <g id="xtick_3">
     <g id="line2d_3">
      <g>
       <use style="stroke:#000000;stroke-width:0.8;" x="237.799669" xlink:href="#ma9e7433998" y="307.584"/>
      </g>
     </g>
     <g id="text_3">
      <!-- 0 -->
      <g transform="translate(234.618419 322.182437)scale(0.1 -0.1)">
       <defs>
        <path d="M 31.78125 66.40625 
Q 24.171875 66.40625 20.328125 58.90625 
Q 16.5 51.421875 16.5 36.375 
Q 16.5 21.390625 20.328125 13.890625 
Q 24.171875 6.390625 31.78125 6.390625 
Q 39.453125 6.390625 43.28125 13.890625 
Q 47.125 21.390625 47.125 36.375 
Q 47.125 51.421875 43.28125 58.90625 
Q 39.453125 66.40625 31.78125 66.40625 
z
M 31.78125 74.21875 
Q 44.046875 74.21875 50.515625 64.515625 
Q 56.984375 54.828125 56.984375 36.375 
Q 56.984375 17.96875 50.515625 8.265625 
Q 44.046875 -1.421875 31.78125 -1.421875 
Q 19.53125 -1.421875 13.0625 8.265625 
Q 6.59375 17.96875 6.59375 36.375 
Q 6.59375 54.828125 13.0625 64.515625 
Q 19.53125 74.21875 31.78125 74.21875 
z
" id="DejaVuSans-48"/>
       </defs>
       <use xlink:href="#DejaVuSans-48"/>
      </g>
     </g>
    </g>
    <g id="xtick_4">
     <g id="line2d_4">
      <g>
       <use style="stroke:#000000;stroke-width:0.8;" x="303.386446" xlink:href="#ma9e7433998" y="307.584"/>
      </g>
     </g>
     <g id="text_4">
      <!-- 2 -->
      <g transform="translate(300.205196 322.182437)scale(0.1 -0.1)">
       <use xlink:href="#DejaVuSans-50"/>
      </g>
     </g>
    </g>
    <g id="xtick_5">
     <g id="line2d_5">
      <g>
       <use style="stroke:#000000;stroke-width:0.8;" x="368.973223" xlink:href="#ma9e7433998" y="307.584"/>
      </g>
     </g>
     <g id="text_5">
      <!-- 4 -->
      <g transform="translate(365.791973 322.182437)scale(0.1 -0.1)">
       <use xlink:href="#DejaVuSans-52"/>
      </g>
     </g>
    </g>
    <g id="text_6">
     <!-- Value of V(x) -->
     <g transform="translate(204.149844 335.860562)scale(0.1 -0.1)">
      <defs>
       <path d="M 28.609375 0 
L 0.78125 72.90625 
L 11.078125 72.90625 
L 34.1875 11.53125 
L 57.328125 72.90625 
L 67.578125 72.90625 
L 39.796875 0 
z
" id="DejaVuSans-86"/>
       <path d="M 34.28125 27.484375 
Q 23.390625 27.484375 19.1875 25 
Q 14.984375 22.515625 14.984375 16.5 
Q 14.984375 11.71875 18.140625 8.90625 
Q 21.296875 6.109375 26.703125 6.109375 
Q 34.1875 6.109375 38.703125 11.40625 
Q 43.21875 16.703125 43.21875 25.484375 
L 43.21875 27.484375 
z
M 52.203125 31.203125 
L 52.203125 0 
L 43.21875 0 
L 43.21875 8.296875 
Q 40.140625 3.328125 35.546875 0.953125 
Q 30.953125 -1.421875 24.3125 -1.421875 
Q 15.921875 -1.421875 10.953125 3.296875 
Q 6 8.015625 6 15.921875 
Q 6 25.140625 12.171875 29.828125 
Q 18.359375 34.515625 30.609375 34.515625 
L 43.21875 34.515625 
L 43.21875 35.40625 
Q 43.21875 41.609375 39.140625 45 
Q 35.0625 48.390625 27.6875 48.390625 
Q 23 48.390625 18.546875 47.265625 
Q 14.109375 46.140625 10.015625 43.890625 
L 10.015625 52.203125 
Q 14.9375 54.109375 19.578125 55.046875 
Q 24.21875 56 28.609375 56 
Q 40.484375 56 46.34375 49.84375 
Q 52.203125 43.703125 52.203125 31.203125 
z
" id="DejaVuSans-97"/>
       <path d="M 9.421875 75.984375 
L 18.40625 75.984375 
L 18.40625 0 
L 9.421875 0 
z
" id="DejaVuSans-108"/>
       <path d="M 8.5 21.578125 
L 8.5 54.6875 
L 17.484375 54.6875 
L 17.484375 21.921875 
Q 17.484375 14.15625 20.5 10.265625 
Q 23.53125 6.390625 29.59375 6.390625 
Q 36.859375 6.390625 41.078125 11.03125 
Q 45.3125 15.671875 45.3125 23.6875 
L 45.3125 54.6875 
L 54.296875 54.6875 
L 54.296875 0 
L 45.3125 0 
L 45.3125 8.40625 
Q 42.046875 3.421875 37.71875 1 
Q 33.40625 -1.421875 27.6875 -1.421875 
Q 18.265625 -1.421875 13.375 4.4375 
Q 8.5 10.296875 8.5 21.578125 
z
M 31.109375 56 
z
" id="DejaVuSans-117"/>
       <path d="M 56.203125 29.59375 
L 56.203125 25.203125 
L 14.890625 25.203125 
Q 15.484375 15.921875 20.484375 11.0625 
Q 25.484375 6.203125 34.421875 6.203125 
Q 39.59375 6.203125 44.453125 7.46875 
Q 49.3125 8.734375 54.109375 11.28125 
L 54.109375 2.78125 
Q 49.265625 0.734375 44.1875 -0.34375 
Q 39.109375 -1.421875 33.890625 -1.421875 
Q 20.796875 -1.421875 13.15625 6.1875 
Q 5.515625 13.8125 5.515625 26.8125 
Q 5.515625 40.234375 12.765625 48.109375 
Q 20.015625 56 32.328125 56 
Q 43.359375 56 49.78125 48.890625 
Q 56.203125 41.796875 56.203125 29.59375 
z
M 47.21875 32.234375 
Q 47.125 39.59375 43.09375 43.984375 
Q 39.0625 48.390625 32.421875 48.390625 
Q 24.90625 48.390625 20.390625 44.140625 
Q 15.875 39.890625 15.1875 32.171875 
z
" id="DejaVuSans-101"/>
       <path id="DejaVuSans-32"/>
       <path d="M 30.609375 48.390625 
Q 23.390625 48.390625 19.1875 42.75 
Q 14.984375 37.109375 14.984375 27.296875 
Q 14.984375 17.484375 19.15625 11.84375 
Q 23.34375 6.203125 30.609375 6.203125 
Q 37.796875 6.203125 41.984375 11.859375 
Q 46.1875 17.53125 46.1875 27.296875 
Q 46.1875 37.015625 41.984375 42.703125 
Q 37.796875 48.390625 30.609375 48.390625 
z
M 30.609375 56 
Q 42.328125 56 49.015625 48.375 
Q 55.71875 40.765625 55.71875 27.296875 
Q 55.71875 13.875 49.015625 6.21875 
Q 42.328125 -1.421875 30.609375 -1.421875 
Q 18.84375 -1.421875 12.171875 6.21875 
Q 5.515625 13.875 5.515625 27.296875 
Q 5.515625 40.765625 12.171875 48.375 
Q 18.84375 56 30.609375 56 
z
" id="DejaVuSans-111"/>
       <path d="M 37.109375 75.984375 
L 37.109375 68.5 
L 28.515625 68.5 
Q 23.6875 68.5 21.796875 66.546875 
Q 19.921875 64.59375 19.921875 59.515625 
L 19.921875 54.6875 
L 34.71875 54.6875 
L 34.71875 47.703125 
L 19.921875 47.703125 
L 19.921875 0 
L 10.890625 0 
L 10.890625 47.703125 
L 2.296875 47.703125 
L 2.296875 54.6875 
L 10.890625 54.6875 
L 10.890625 58.5 
Q 10.890625 67.625 15.140625 71.796875 
Q 19.390625 75.984375 28.609375 75.984375 
z
" id="DejaVuSans-102"/>
       <path d="M 31 75.875 
Q 24.46875 64.65625 21.28125 53.65625 
Q 18.109375 42.671875 18.109375 31.390625 
Q 18.109375 20.125 21.3125 9.0625 
Q 24.515625 -2 31 -13.1875 
L 23.1875 -13.1875 
Q 15.875 -1.703125 12.234375 9.375 
Q 8.59375 20.453125 8.59375 31.390625 
Q 8.59375 42.28125 12.203125 53.3125 
Q 15.828125 64.359375 23.1875 75.875 
z
" id="DejaVuSans-40"/>
       <path d="M 54.890625 54.6875 
L 35.109375 28.078125 
L 55.90625 0 
L 45.3125 0 
L 29.390625 21.484375 
L 13.484375 0 
L 2.875 0 
L 24.125 28.609375 
L 4.6875 54.6875 
L 15.28125 54.6875 
L 29.78125 35.203125 
L 44.28125 54.6875 
z
" id="DejaVuSans-120"/>
       <path d="M 8.015625 75.875 
L 15.828125 75.875 
Q 23.140625 64.359375 26.78125 53.3125 
Q 30.421875 42.28125 30.421875 31.390625 
Q 30.421875 20.453125 26.78125 9.375 
Q 23.140625 -1.703125 15.828125 -13.1875 
L 8.015625 -13.1875 
Q 14.5 -2 17.703125 9.0625 
Q 20.90625 20.125 20.90625 31.390625 
Q 20.90625 42.671875 17.703125 53.65625 
Q 14.5 64.65625 8.015625 75.875 
z
" id="DejaVuSans-41"/>
      </defs>
      <use xlink:href="#DejaVuSans-86"/>
      <use x="60.658203" xlink:href="#DejaVuSans-97"/>
      <use x="121.9375" xlink:href="#DejaVuSans-108"/>
      <use x="149.720703" xlink:href="#DejaVuSans-117"/>
      <use x="213.099609" xlink:href="#DejaVuSans-101"/>
      <use x="274.623047" xlink:href="#DejaVuSans-32"/>
      <use x="306.410156" xlink:href="#DejaVuSans-111"/>
      <use x="367.591797" xlink:href="#DejaVuSans-102"/>
      <use x="402.796875" xlink:href="#DejaVuSans-32"/>
      <use x="434.583984" xlink:href="#DejaVuSans-86"/>
      <use x="502.992188" xlink:href="#DejaVuSans-40"/>
      <use x="542.005859" xlink:href="#DejaVuSans-120"/>
      <use x="601.185547" xlink:href="#DejaVuSans-41"/>
     </g>
    </g>
   </g>
   <g id="matplotlib.axis_2">
    <g id="ytick_1">
     <g id="line2d_6">
      <defs>
       <path d="M 0 0 
L -3.5 0 
" id="m3b6415a3a4" style="stroke:#000000;stroke-width:0.8;"/>
      </defs>
      <g>
       <use style="stroke:#000000;stroke-width:0.8;" x="57.6" xlink:href="#m3b6415a3a4" y="307.584"/>
      </g>
     </g>
     <g id="text_7">
      <!-- −10.0 -->
      <g transform="translate(19.954687 311.383219)scale(0.1 -0.1)">
       <defs>
        <path d="M 12.40625 8.296875 
L 28.515625 8.296875 
L 28.515625 63.921875 
L 10.984375 60.40625 
L 10.984375 69.390625 
L 28.421875 72.90625 
L 38.28125 72.90625 
L 38.28125 8.296875 
L 54.390625 8.296875 
L 54.390625 0 
L 12.40625 0 
z
" id="DejaVuSans-49"/>
        <path d="M 10.6875 12.40625 
L 21 12.40625 
L 21 0 
L 10.6875 0 
z
" id="DejaVuSans-46"/>
       </defs>
       <use xlink:href="#DejaVuSans-8722"/>
       <use x="83.789062" xlink:href="#DejaVuSans-49"/>
       <use x="147.412109" xlink:href="#DejaVuSans-48"/>
       <use x="211.035156" xlink:href="#DejaVuSans-46"/>
       <use x="242.822266" xlink:href="#DejaVuSans-48"/>
      </g>
     </g>
    </g>
    <g id="ytick_2">
     <g id="line2d_7">
      <g>
       <use style="stroke:#000000;stroke-width:0.8;" x="57.6" xlink:href="#m3b6415a3a4" y="274.32"/>
      </g>
     </g>
     <g id="text_8">
      <!-- −7.5 -->
      <g transform="translate(26.317187 278.119219)scale(0.1 -0.1)">
       <defs>
        <path d="M 8.203125 72.90625 
L 55.078125 72.90625 
L 55.078125 68.703125 
L 28.609375 0 
L 18.3125 0 
L 43.21875 64.59375 
L 8.203125 64.59375 
z
" id="DejaVuSans-55"/>
        <path d="M 10.796875 72.90625 
L 49.515625 72.90625 
L 49.515625 64.59375 
L 19.828125 64.59375 
L 19.828125 46.734375 
Q 21.96875 47.46875 24.109375 47.828125 
Q 26.265625 48.1875 28.421875 48.1875 
Q 40.625 48.1875 47.75 41.5 
Q 54.890625 34.8125 54.890625 23.390625 
Q 54.890625 11.625 47.5625 5.09375 
Q 40.234375 -1.421875 26.90625 -1.421875 
Q 22.3125 -1.421875 17.546875 -0.640625 
Q 12.796875 0.140625 7.71875 1.703125 
L 7.71875 11.625 
Q 12.109375 9.234375 16.796875 8.0625 
Q 21.484375 6.890625 26.703125 6.890625 
Q 35.15625 6.890625 40.078125 11.328125 
Q 45.015625 15.765625 45.015625 23.390625 
Q 45.015625 31 40.078125 35.4375 
Q 35.15625 39.890625 26.703125 39.890625 
Q 22.75 39.890625 18.8125 39.015625 
Q 14.890625 38.140625 10.796875 36.28125 
z
" id="DejaVuSans-53"/>
       </defs>
       <use xlink:href="#DejaVuSans-8722"/>
       <use x="83.789062" xlink:href="#DejaVuSans-55"/>
       <use x="147.412109" xlink:href="#DejaVuSans-46"/>
       <use x="179.199219" xlink:href="#DejaVuSans-53"/>
      </g>
     </g>
    </g>
    <g id="ytick_3">
     <g id="line2d_8">
      <g>
       <use style="stroke:#000000;stroke-width:0.8;" x="57.6" xlink:href="#m3b6415a3a4" y="241.056"/>
      </g>
     </g>
     <g id="text_9">
      <!-- −5.0 -->
      <g transform="translate(26.317187 244.855219)scale(0.1 -0.1)">
       <use xlink:href="#DejaVuSans-8722"/>
       <use x="83.789062" xlink:href="#DejaVuSans-53"/>
       <use x="147.412109" xlink:href="#DejaVuSans-46"/>
       <use x="179.199219" xlink:href="#DejaVuSans-48"/>
      </g>
     </g>
    </g>
    <g id="ytick_4">
     <g id="line2d_9">
      <g>
       <use style="stroke:#000000;stroke-width:0.8;" x="57.6" xlink:href="#m3b6415a3a4" y="207.792"/>
      </g>
     </g>
     <g id="text_10">
      <!-- −2.5 -->
      <g transform="translate(26.317187 211.591219)scale(0.1 -0.1)">
       <use xlink:href="#DejaVuSans-8722"/>
       <use x="83.789062" xlink:href="#DejaVuSans-50"/>
       <use x="147.412109" xlink:href="#DejaVuSans-46"/>
       <use x="179.199219" xlink:href="#DejaVuSans-53"/>
      </g>
     </g>
    </g>
    <g id="ytick_5">
     <g id="line2d_10">
      <g>
       <use style="stroke:#000000;stroke-width:0.8;" x="57.6" xlink:href="#m3b6415a3a4" y="174.528"/>
      </g>
     </g>
     <g id="text_11">
      <!-- 0.0 -->
      <g transform="translate(34.696875 178.327219)scale(0.1 -0.1)">
       <use xlink:href="#DejaVuSans-48"/>
       <use x="63.623047" xlink:href="#DejaVuSans-46"/>
       <use x="95.410156" xlink:href="#DejaVuSans-48"/>
      </g>
     </g>
    </g>
    <g id="ytick_6">
     <g id="line2d_11">
      <g>
       <use style="stroke:#000000;stroke-width:0.8;" x="57.6" xlink:href="#m3b6415a3a4" y="141.264"/>
      </g>
     </g>
     <g id="text_12">
      <!-- 2.5 -->
      <g transform="translate(34.696875 145.063219)scale(0.1 -0.1)">
       <use xlink:href="#DejaVuSans-50"/>
       <use x="63.623047" xlink:href="#DejaVuSans-46"/>
       <use x="95.410156" xlink:href="#DejaVuSans-53"/>
      </g>
     </g>
    </g>
    <g id="ytick_7">
     <g id="line2d_12">
      <g>
       <use style="stroke:#000000;stroke-width:0.8;" x="57.6" xlink:href="#m3b6415a3a4" y="108"/>
      </g>
     </g>
     <g id="text_13">
      <!-- 5.0 -->
      <g transform="translate(34.696875 111.799219)scale(0.1 -0.1)">
       <use xlink:href="#DejaVuSans-53"/>
       <use x="63.623047" xlink:href="#DejaVuSans-46"/>
       <use x="95.410156" xlink:href="#DejaVuSans-48"/>
      </g>
     </g>
    </g>
    <g id="ytick_8">
     <g id="line2d_13">
      <g>
       <use style="stroke:#000000;stroke-width:0.8;" x="57.6" xlink:href="#m3b6415a3a4" y="74.736"/>
      </g>
     </g>
     <g id="text_14">
      <!-- 7.5 -->
      <g transform="translate(34.696875 78.535219)scale(0.1 -0.1)">
       <use xlink:href="#DejaVuSans-55"/>
       <use x="63.623047" xlink:href="#DejaVuSans-46"/>
       <use x="95.410156" xlink:href="#DejaVuSans-53"/>
      </g>
     </g>
    </g>
    <g id="ytick_9">
     <g id="line2d_14">
      <g>
       <use style="stroke:#000000;stroke-width:0.8;" x="57.6" xlink:href="#m3b6415a3a4" y="41.472"/>
      </g>
     </g>
     <g id="text_15">
      <!-- 10.0 -->
      <g transform="translate(28.334375 45.271219)scale(0.1 -0.1)">
       <use xlink:href="#DejaVuSans-49"/>
       <use x="63.623047" xlink:href="#DejaVuSans-48"/>
       <use x="127.246094" xlink:href="#DejaVuSans-46"/>
       <use x="159.033203" xlink:href="#DejaVuSans-48"/>
      </g>
     </g>
    </g>
    <g id="text_16">
     <!-- Gradient -->
     <g transform="translate(13.875 196.2905)rotate(-90)scale(0.1 -0.1)">
      <defs>
       <path d="M 59.515625 10.40625 
L 59.515625 29.984375 
L 43.40625 29.984375 
L 43.40625 38.09375 
L 69.28125 38.09375 
L 69.28125 6.78125 
Q 63.578125 2.734375 56.6875 0.65625 
Q 49.8125 -1.421875 42 -1.421875 
Q 24.90625 -1.421875 15.25 8.5625 
Q 5.609375 18.5625 5.609375 36.375 
Q 5.609375 54.25 15.25 64.234375 
Q 24.90625 74.21875 42 74.21875 
Q 49.125 74.21875 55.546875 72.453125 
Q 61.96875 70.703125 67.390625 67.28125 
L 67.390625 56.78125 
Q 61.921875 61.421875 55.765625 63.765625 
Q 49.609375 66.109375 42.828125 66.109375 
Q 29.4375 66.109375 22.71875 58.640625 
Q 16.015625 51.171875 16.015625 36.375 
Q 16.015625 21.625 22.71875 14.15625 
Q 29.4375 6.6875 42.828125 6.6875 
Q 48.046875 6.6875 52.140625 7.59375 
Q 56.25 8.5 59.515625 10.40625 
z
" id="DejaVuSans-71"/>
       <path d="M 41.109375 46.296875 
Q 39.59375 47.171875 37.8125 47.578125 
Q 36.03125 48 33.890625 48 
Q 26.265625 48 22.1875 43.046875 
Q 18.109375 38.09375 18.109375 28.8125 
L 18.109375 0 
L 9.078125 0 
L 9.078125 54.6875 
L 18.109375 54.6875 
L 18.109375 46.1875 
Q 20.953125 51.171875 25.484375 53.578125 
Q 30.03125 56 36.53125 56 
Q 37.453125 56 38.578125 55.875 
Q 39.703125 55.765625 41.0625 55.515625 
z
" id="DejaVuSans-114"/>
       <path d="M 45.40625 46.390625 
L 45.40625 75.984375 
L 54.390625 75.984375 
L 54.390625 0 
L 45.40625 0 
L 45.40625 8.203125 
Q 42.578125 3.328125 38.25 0.953125 
Q 33.9375 -1.421875 27.875 -1.421875 
Q 17.96875 -1.421875 11.734375 6.484375 
Q 5.515625 14.40625 5.515625 27.296875 
Q 5.515625 40.1875 11.734375 48.09375 
Q 17.96875 56 27.875 56 
Q 33.9375 56 38.25 53.625 
Q 42.578125 51.265625 45.40625 46.390625 
z
M 14.796875 27.296875 
Q 14.796875 17.390625 18.875 11.75 
Q 22.953125 6.109375 30.078125 6.109375 
Q 37.203125 6.109375 41.296875 11.75 
Q 45.40625 17.390625 45.40625 27.296875 
Q 45.40625 37.203125 41.296875 42.84375 
Q 37.203125 48.484375 30.078125 48.484375 
Q 22.953125 48.484375 18.875 42.84375 
Q 14.796875 37.203125 14.796875 27.296875 
z
" id="DejaVuSans-100"/>
       <path d="M 9.421875 54.6875 
L 18.40625 54.6875 
L 18.40625 0 
L 9.421875 0 
z
M 9.421875 75.984375 
L 18.40625 75.984375 
L 18.40625 64.59375 
L 9.421875 64.59375 
z
" id="DejaVuSans-105"/>
       <path d="M 54.890625 33.015625 
L 54.890625 0 
L 45.90625 0 
L 45.90625 32.71875 
Q 45.90625 40.484375 42.875 44.328125 
Q 39.84375 48.1875 33.796875 48.1875 
Q 26.515625 48.1875 22.3125 43.546875 
Q 18.109375 38.921875 18.109375 30.90625 
L 18.109375 0 
L 9.078125 0 
L 9.078125 54.6875 
L 18.109375 54.6875 
L 18.109375 46.1875 
Q 21.34375 51.125 25.703125 53.5625 
Q 30.078125 56 35.796875 56 
Q 45.21875 56 50.046875 50.171875 
Q 54.890625 44.34375 54.890625 33.015625 
z
" id="DejaVuSans-110"/>
       <path d="M 18.3125 70.21875 
L 18.3125 54.6875 
L 36.8125 54.6875 
L 36.8125 47.703125 
L 18.3125 47.703125 
L 18.3125 18.015625 
Q 18.3125 11.328125 20.140625 9.421875 
Q 21.96875 7.515625 27.59375 7.515625 
L 36.8125 7.515625 
L 36.8125 0 
L 27.59375 0 
Q 17.1875 0 13.234375 3.875 
Q 9.28125 7.765625 9.28125 18.015625 
L 9.28125 47.703125 
L 2.6875 47.703125 
L 2.6875 54.6875 
L 9.28125 54.6875 
L 9.28125 70.21875 
z
" id="DejaVuSans-116"/>
      </defs>
      <use xlink:href="#DejaVuSans-71"/>
      <use x="77.490234" xlink:href="#DejaVuSans-114"/>
      <use x="118.603516" xlink:href="#DejaVuSans-97"/>
      <use x="179.882812" xlink:href="#DejaVuSans-100"/>
      <use x="243.359375" xlink:href="#DejaVuSans-105"/>
      <use x="271.142578" xlink:href="#DejaVuSans-101"/>
      <use x="332.666016" xlink:href="#DejaVuSans-110"/>
      <use x="396.044922" xlink:href="#DejaVuSans-116"/>
     </g>
    </g>
   </g>
   <g id="line2d_15">
    <path clip-path="url(#p0501c4b2de)" d="M 73.832727 174.529208 
L 77.112066 174.529476 
L 80.391405 174.529802 
L 83.670744 174.530202 
L 86.950083 174.530688 
L 90.229421 174.531283 
L 93.50876 174.53201 
L 96.788099 174.532897 
L 100.067438 174.533982 
L 103.346777 174.535305 
L 106.626116 174.536921 
L 109.905455 174.538895 
L 113.184793 174.541304 
L 116.464132 174.544247 
L 119.743471 174.547838 
L 123.02281 174.552222 
L 126.302149 174.557573 
L 129.581488 174.564102 
L 132.860826 174.572069 
L 136.140165 174.581787 
L 139.419504 174.593637 
L 142.698843 174.608081 
L 145.978182 174.625681 
L 149.257521 174.647113 
L 152.53686 174.673196 
L 155.816198 174.704913 
L 159.095537 174.743443 
L 162.374876 174.790194 
L 165.654215 174.846838 
L 168.933554 174.915346 
L 172.212893 174.998026 
L 175.492231 175.097546 
L 178.77157 175.216953 
L 182.050909 175.359666 
L 185.330248 175.529427 
L 188.609587 175.730205 
L 191.888926 175.966019 
L 195.168264 176.240652 
L 198.447603 176.557236 
L 201.726942 176.917694 
L 205.006281 177.322005 
L 208.28562 177.767364 
L 211.564959 178.247282 
L 214.844298 178.750795 
L 218.123636 179.261985 
L 221.402975 179.760079 
L 224.682314 180.220393 
L 227.961653 180.616223 
L 231.240992 180.921627 
L 234.520331 181.114713 
L 237.799669 181.1808 
L 241.079008 181.114713 
L 244.358347 180.921627 
L 247.637686 180.616223 
L 250.917025 180.220393 
L 254.196364 179.760079 
L 257.475702 179.261985 
L 260.755041 178.750795 
L 264.03438 178.247282 
L 267.313719 177.767364 
L 270.593058 177.322005 
L 273.872397 176.917694 
L 277.151736 176.557236 
L 280.431074 176.240652 
L 283.710413 175.966019 
L 286.989752 175.730205 
L 290.269091 175.529427 
L 293.54843 175.359666 
L 296.827769 175.216953 
L 300.107107 175.097546 
L 303.386446 174.998026 
L 306.665785 174.915346 
L 309.945124 174.846838 
L 313.224463 174.790194 
L 316.503802 174.743443 
L 319.78314 174.704913 
L 323.062479 174.673196 
L 326.341818 174.647113 
L 329.621157 174.625681 
L 332.900496 174.608081 
L 336.179835 174.593637 
L 339.459174 174.581787 
L 342.738512 174.572069 
L 346.017851 174.564102 
L 349.29719 174.557573 
L 352.576529 174.552222 
L 355.855868 174.547838 
L 359.135207 174.544247 
L 362.414545 174.541304 
L 365.693884 174.538895 
L 368.973223 174.536921 
L 372.252562 174.535305 
L 375.531901 174.533982 
L 378.81124 174.532897 
L 382.090579 174.53201 
L 385.369917 174.531283 
L 388.649256 174.530688 
L 391.928595 174.530202 
L 395.207934 174.529802 
L 398.487273 174.529476 
" style="fill:none;stroke:#0000ff;stroke-linecap:square;stroke-width:1.5;"/>
   </g>
   <g id="line2d_16">
    <path clip-path="url(#p0501c4b2de)" d="M 73.832727 174.560981 
L 77.112066 174.56445 
L 80.391405 174.568283 
L 83.670744 174.57252 
L 86.950083 174.577202 
L 90.229421 174.582377 
L 93.50876 174.588096 
L 96.788099 174.594416 
L 100.067438 174.601401 
L 103.346777 174.609121 
L 106.626116 174.617652 
L 109.905455 174.627081 
L 113.184793 174.637502 
L 116.464132 174.649018 
L 119.743471 174.661746 
L 123.02281 174.675812 
L 126.302149 174.691357 
L 129.581488 174.708538 
L 132.860826 174.727525 
L 136.140165 174.748509 
L 139.419504 174.771701 
L 142.698843 174.797331 
L 145.978182 174.825657 
L 149.257521 174.856961 
L 152.53686 174.891559 
L 155.816198 174.929794 
L 159.095537 174.972051 
L 162.374876 175.018753 
L 165.654215 175.070366 
L 168.933554 175.127407 
L 172.212893 175.190447 
L 175.492231 175.260117 
L 178.77157 175.337114 
L 182.050909 175.42221 
L 185.330248 175.516255 
L 188.609587 175.62019 
L 191.888926 175.735057 
L 195.168264 175.862004 
L 198.447603 176.002302 
L 201.726942 176.157356 
L 205.006281 176.328717 
L 208.28562 176.5181 
L 211.564959 176.727401 
L 214.844298 176.958714 
L 218.123636 177.214354 
L 221.402975 177.496881 
L 224.682314 177.809121 
L 227.961653 178.154199 
L 231.240992 178.535569 
L 234.520331 178.957049 
L 237.799669 179.422857 
L 241.079008 179.937653 
L 244.358347 180.506591 
L 247.637686 181.135365 
L 250.917025 181.830268 
L 254.196364 182.598254 
L 257.475702 183.44701 
L 260.755041 184.385031 
L 264.03438 185.421704 
L 267.313719 186.567404 
L 270.593058 187.8336 
L 273.872397 189.232963 
L 277.151736 190.779498 
L 280.431074 192.488681 
L 283.710413 194.377622 
L 286.989752 196.465225 
L 290.269091 198.772385 
L 293.54843 201.322188 
L 296.827769 204.140157 
L 300.107107 207.254495 
L 303.386446 210.69637 
L 306.665785 214.500226 
L 309.945124 218.704149 
L 313.224463 223.350192 
L 316.503802 228.484877 
L 319.78314 234.159561 
L 323.062479 240.431063 
L 326.341818 247.362156 
L 329.621157 255.022188 
L 332.900496 263.487844 
L 336.179835 272.843826 
L 339.459174 283.18378 
L 342.738512 294.611225 
L 346.017851 307.240478 
L 349.29719 321.197986 
L 352.576529 336.623394 
L 354.495654 346.6 
" style="fill:none;stroke:#ffa500;stroke-linecap:square;stroke-width:1.5;"/>
   </g>
   <g id="line2d_17">
    <path clip-path="url(#p0501c4b2de)" d="M 73.832727 161.2224 
L 77.112066 161.2224 
L 80.391405 161.2224 
L 83.670744 161.2224 
L 86.950083 161.2224 
L 90.229421 161.2224 
L 93.50876 161.2224 
L 96.788099 161.2224 
L 100.067438 161.2224 
L 103.346777 161.2224 
L 106.626116 161.2224 
L 109.905455 161.2224 
L 113.184793 161.2224 
L 116.464132 161.2224 
L 119.743471 161.2224 
L 123.02281 161.2224 
L 126.302149 161.2224 
L 129.581488 161.2224 
L 132.860826 161.2224 
L 136.140165 161.2224 
L 139.419504 161.2224 
L 142.698843 161.2224 
L 145.978182 161.2224 
L 149.257521 161.2224 
L 152.53686 161.2224 
L 155.816198 161.2224 
L 159.095537 161.2224 
L 162.374876 161.2224 
L 165.654215 161.2224 
L 168.933554 161.2224 
L 172.212893 161.2224 
L 175.492231 161.2224 
L 178.77157 161.2224 
L 182.050909 161.2224 
L 185.330248 161.2224 
L 188.609587 161.2224 
L 191.888926 161.2224 
L 195.168264 161.2224 
L 198.447603 161.2224 
L 201.726942 161.2224 
L 205.006281 161.2224 
L 208.28562 161.2224 
L 211.564959 161.2224 
L 214.844298 161.2224 
L 218.123636 161.2224 
L 221.402975 161.2224 
L 224.682314 161.2224 
L 227.961653 161.2224 
L 231.240992 161.2224 
L 234.520331 161.2224 
L 237.799669 161.2224 
L 241.079008 161.2224 
L 244.358347 161.2224 
L 247.637686 161.2224 
L 250.917025 161.2224 
L 254.196364 161.2224 
L 257.475702 161.2224 
L 260.755041 161.2224 
L 264.03438 161.2224 
L 267.313719 161.2224 
L 270.593058 161.2224 
L 273.872397 161.2224 
L 277.151736 161.2224 
L 280.431074 161.2224 
L 283.710413 161.2224 
L 286.989752 161.2224 
L 290.269091 161.2224 
L 293.54843 161.2224 
L 296.827769 161.2224 
L 300.107107 161.2224 
L 303.386446 161.2224 
L 306.665785 161.2224 
L 309.945124 161.2224 
L 313.224463 161.2224 
L 316.503802 161.2224 
L 319.78314 161.2224 
L 323.062479 161.2224 
L 326.341818 161.2224 
L 329.621157 161.2224 
L 332.900496 161.2224 
L 336.179835 161.2224 
L 339.459174 161.2224 
L 342.738512 161.2224 
L 346.017851 161.2224 
L 349.29719 161.2224 
L 352.576529 161.2224 
L 355.855868 161.2224 
L 359.135207 161.2224 
L 362.414545 161.2224 
L 365.693884 161.2224 
L 368.973223 161.2224 
L 372.252562 161.2224 
L 375.531901 161.2224 
L 378.81124 161.2224 
L 382.090579 161.2224 
L 385.369917 161.2224 
L 388.649256 161.2224 
L 391.928595 161.2224 
L 395.207934 161.2224 
L 398.487273 161.2224 
" style="fill:none;stroke:#800080;stroke-linecap:square;stroke-width:1.5;"/>
   </g>
   <g id="line2d_18">
    <path clip-path="url(#p0501c4b2de)" d="M 73.832727 154.5696 
L 77.112066 155.234879 
L 80.391405 155.900159 
L 83.670744 156.565441 
L 86.950083 157.230721 
L 90.229421 157.896 
L 93.50876 158.561279 
L 96.788099 159.226559 
L 100.067438 159.891841 
L 103.346777 160.557121 
L 106.626116 161.2224 
L 109.905455 161.887679 
L 113.184793 162.55296 
L 116.464132 163.21824 
L 119.743471 163.883521 
L 123.02281 164.5488 
L 126.302149 165.214079 
L 129.581488 165.87936 
L 132.860826 166.54464 
L 136.140165 167.209921 
L 139.419504 167.8752 
L 142.698843 168.540479 
L 145.978182 169.20576 
L 149.257521 169.87104 
L 152.53686 170.536321 
L 155.816198 171.2016 
L 159.095537 171.866879 
L 162.374876 172.53216 
L 165.654215 173.19744 
L 168.933554 173.862721 
L 172.212893 174.528 
L 175.492231 175.19328 
L 178.77157 175.85856 
L 182.050909 176.52384 
L 185.330248 177.18912 
L 188.609587 177.8544 
L 191.888926 178.51968 
L 195.168264 179.18496 
L 198.447603 179.85024 
L 201.726942 180.51552 
L 205.006281 181.1808 
L 208.28562 181.84608 
L 211.564959 182.51136 
L 214.844298 183.17664 
L 218.123636 183.84192 
L 221.402975 184.5072 
L 224.682314 185.17248 
L 227.961653 185.83776 
L 231.240992 186.50304 
L 234.520331 187.16832 
L 237.799669 187.8336 
L 241.079008 188.498879 
L 244.358347 189.16416 
L 247.637686 189.82944 
L 250.917025 190.494721 
L 254.196364 191.16 
L 257.475702 191.825279 
L 260.755041 192.49056 
L 264.03438 193.15584 
L 267.313719 193.821121 
L 270.593058 194.4864 
L 273.872397 195.151679 
L 277.151736 195.81696 
L 280.431074 196.48224 
L 283.710413 197.147521 
L 286.989752 197.8128 
L 290.269091 198.478079 
L 293.54843 199.14336 
L 296.827769 199.80864 
L 300.107107 200.473921 
L 303.386446 201.1392 
L 306.665785 201.804479 
L 309.945124 202.469759 
L 313.224463 203.135041 
L 316.503802 203.800321 
L 319.78314 204.4656 
L 323.062479 205.130879 
L 326.341818 205.796159 
L 329.621157 206.461441 
L 332.900496 207.126721 
L 336.179835 207.792 
L 339.459174 208.457279 
L 342.738512 209.122559 
L 346.017851 209.787841 
L 349.29719 210.453121 
L 352.576529 211.1184 
L 355.855868 211.783679 
L 359.135207 212.448959 
L 362.414545 213.114241 
L 365.693884 213.779521 
L 368.973223 214.4448 
L 372.252562 215.110079 
L 375.531901 215.775359 
L 378.81124 216.440641 
L 382.090579 217.105921 
L 385.369917 217.7712 
L 388.649256 218.436479 
L 391.928595 219.101759 
L 395.207934 219.767041 
L 398.487273 220.432321 
" style="fill:none;stroke:#008000;stroke-linecap:square;stroke-width:1.5;"/>
   </g>
   <g id="line2d_19">
    <path clip-path="url(#p0501c4b2de)" d="M 153.232268 -1 
L 155.816198 12.432606 
L 159.095537 27.858001 
L 162.374876 41.815522 
L 165.654215 54.444775 
L 168.933554 65.87222 
L 172.212893 76.212174 
L 175.492231 85.568162 
L 178.77157 94.033812 
L 182.050909 101.693844 
L 185.330248 108.624931 
L 188.609587 114.896439 
L 191.888926 120.571136 
L 195.168264 125.705808 
L 198.447603 130.351848 
L 201.726942 134.555767 
L 205.006281 138.35963 
L 208.28562 141.801505 
L 211.564959 144.915843 
L 214.844298 147.733812 
L 218.123636 150.283615 
L 221.402975 152.590775 
L 224.682314 154.678378 
L 227.961653 156.567318 
L 231.240992 158.276503 
L 234.520331 159.823039 
L 237.799669 161.2224 
L 241.079008 162.488596 
L 244.358347 163.634297 
L 247.637686 164.670969 
L 250.917025 165.60899 
L 254.196364 166.457746 
L 257.475702 167.225732 
L 260.755041 167.920635 
L 264.03438 168.549409 
L 267.313719 169.118347 
L 270.593058 169.633143 
L 273.872397 170.098951 
L 277.151736 170.520431 
L 280.431074 170.901801 
L 283.710413 171.24688 
L 286.989752 171.559119 
L 290.269091 171.841646 
L 293.54843 172.097287 
L 296.827769 172.328599 
L 300.107107 172.537901 
L 303.386446 172.727283 
L 306.665785 172.898644 
L 309.945124 173.053699 
L 313.224463 173.193996 
L 316.503802 173.320943 
L 319.78314 173.43581 
L 323.062479 173.539745 
L 326.341818 173.633791 
L 329.621157 173.718885 
L 332.900496 173.795884 
L 336.179835 173.865554 
L 339.459174 173.928593 
L 342.738512 173.985634 
L 346.017851 174.037247 
L 349.29719 174.083948 
L 352.576529 174.126206 
L 355.855868 174.164441 
L 359.135207 174.199039 
L 362.414545 174.230343 
L 365.693884 174.258668 
L 368.973223 174.284301 
L 372.252562 174.307491 
L 375.531901 174.328475 
L 378.81124 174.347461 
L 382.090579 174.364643 
L 385.369917 174.380187 
L 388.649256 174.394255 
L 391.928595 174.406983 
L 395.207934 174.418498 
L 398.487273 174.428919 
" style="fill:none;stroke:#ffc0cb;stroke-linecap:square;stroke-width:1.5;"/>
   </g>
   <g id="line2d_20">
    <path clip-path="url(#p0501c4b2de)" d="M 73.832727 174.704913 
L 77.112066 174.723244 
L 80.391405 174.743443 
L 83.670744 174.765693 
L 86.950083 174.790194 
L 90.229421 174.817163 
L 93.50876 174.846838 
L 96.788099 174.879473 
L 100.067438 174.915346 
L 103.346777 174.954757 
L 106.626116 174.998026 
L 109.905455 175.045499 
L 113.184793 175.097546 
L 116.464132 175.154558 
L 119.743471 175.216953 
L 123.02281 175.285169 
L 126.302149 175.359665 
L 129.581488 175.440921 
L 132.860826 175.529427 
L 136.140165 175.625686 
L 139.419504 175.730205 
L 142.698843 175.843487 
L 145.978182 175.966019 
L 149.257521 176.098266 
L 152.53686 176.240652 
L 155.816198 176.393544 
L 159.095537 176.557237 
L 162.374876 176.731928 
L 165.654215 176.917695 
L 168.933554 177.114468 
L 172.212893 177.322005 
L 175.492231 177.539862 
L 178.77157 177.767364 
L 182.050909 178.003576 
L 185.330248 178.247282 
L 188.609587 178.496966 
L 191.888926 178.750795 
L 195.168264 179.006622 
L 198.447603 179.261985 
L 201.726942 179.514137 
L 205.006281 179.76008 
L 208.28562 179.996611 
L 211.564959 180.220394 
L 214.844298 180.428046 
L 218.123636 180.616223 
L 221.402975 180.781731 
L 224.682314 180.921627 
L 227.961653 181.033329 
L 231.240992 181.114714 
L 234.520331 181.164195 
L 237.799669 181.1808 
L 241.079008 181.164196 
L 244.358347 181.114712 
L 247.637686 181.033328 
L 250.917025 180.921626 
L 254.196364 180.781731 
L 257.475702 180.616223 
L 260.755041 180.428045 
L 264.03438 180.220394 
L 267.313719 179.99661 
L 270.593058 179.76008 
L 273.872397 179.514137 
L 277.151736 179.261984 
L 280.431074 179.006622 
L 283.710413 178.750796 
L 286.989752 178.496966 
L 290.269091 178.247282 
L 293.54843 178.003576 
L 296.827769 177.767364 
L 300.107107 177.539863 
L 303.386446 177.322005 
L 306.665785 177.114468 
L 309.945124 176.917695 
L 313.224463 176.731928 
L 316.503802 176.557237 
L 319.78314 176.393544 
L 323.062479 176.240652 
L 326.341818 176.098266 
L 329.621157 175.966019 
L 332.900496 175.843487 
L 336.179835 175.730205 
L 339.459174 175.625686 
L 342.738512 175.529427 
L 346.017851 175.440921 
L 349.29719 175.359666 
L 352.576529 175.285169 
L 355.855868 175.216953 
L 359.135207 175.154558 
L 362.414545 175.097546 
L 365.693884 175.045499 
L 368.973223 174.998026 
L 372.252562 174.954757 
L 375.531901 174.915346 
L 378.81124 174.879473 
L 382.090579 174.846838 
L 385.369917 174.817163 
L 388.649256 174.790194 
L 391.928595 174.765693 
L 395.207934 174.743443 
L 398.487273 174.723244 
" style="fill:none;stroke:#808080;stroke-linecap:square;stroke-width:1.5;"/>
   </g>
   <g id="line2d_21">
    <path clip-path="url(#p0501c4b2de)" d="M 130.489744 -1 
L 132.860826 11.417748 
L 136.140165 26.959732 
L 139.419504 41.024782 
L 142.698843 53.753708 
L 145.978182 65.273898 
L 149.257521 75.700589 
L 152.53686 85.138233 
L 155.816198 93.681198 
L 159.095537 101.415024 
L 162.374876 108.417139 
L 165.654215 114.757568 
L 168.933554 120.499816 
L 172.212893 125.70131 
L 175.492231 130.414139 
L 178.77157 134.685464 
L 182.050909 138.558026 
L 185.330248 142.070593 
L 188.609587 145.258316 
L 191.888926 148.153097 
L 195.168264 150.783906 
L 198.447603 153.177075 
L 201.726942 155.356563 
L 205.006281 157.344173 
L 208.28562 159.159802 
L 211.564959 160.821622 
L 214.844298 162.346263 
L 218.123636 163.748985 
L 221.402975 165.043828 
L 224.682314 166.243749 
L 227.961653 167.360759 
L 231.240992 168.406036 
L 234.520331 169.390044 
L 237.799669 170.322628 
L 241.079008 171.213125 
L 244.358347 172.070444 
L 247.637686 172.903167 
L 250.917025 173.719629 
L 254.196364 174.528 
L 257.475702 175.336371 
L 260.755041 176.152833 
L 264.03438 176.985556 
L 267.313719 177.842875 
L 270.593058 178.733372 
L 273.872397 179.665957 
L 277.151736 180.649965 
L 280.431074 181.695241 
L 283.710413 182.812251 
L 286.989752 184.012172 
L 290.269091 185.307015 
L 293.54843 186.709737 
L 296.827769 188.234378 
L 300.107107 189.896198 
L 303.386446 191.711827 
L 306.665785 193.699434 
L 309.945124 195.878923 
L 313.224463 198.272094 
L 316.503802 200.902909 
L 319.78314 203.797684 
L 323.062479 206.985404 
L 326.341818 210.497974 
L 329.621157 214.370536 
L 332.900496 218.641864 
L 336.179835 223.35469 
L 339.459174 228.55619 
L 342.738512 234.298432 
L 346.017851 240.638861 
L 349.29719 247.64097 
L 352.576529 255.374802 
L 355.855868 263.917767 
L 359.135207 273.355404 
L 362.414545 283.782115 
L 365.693884 295.302292 
L 368.973223 308.031206 
L 372.252562 322.096255 
L 375.531901 337.638214 
L 377.243084 346.6 
" style="fill:none;stroke:#000000;stroke-linecap:square;stroke-width:1.5;"/>
   </g>
   <g id="patch_3">
    <path d="M 57.6 307.584 
L 57.6 41.472 
" style="fill:none;stroke:#000000;stroke-linecap:square;stroke-linejoin:miter;stroke-width:0.8;"/>
   </g>
   <g id="patch_4">
    <path d="M 414.72 307.584 
L 414.72 41.472 
" style="fill:none;stroke:#000000;stroke-linecap:square;stroke-linejoin:miter;stroke-width:0.8;"/>
   </g>
   <g id="patch_5">
    <path d="M 57.6 307.584 
L 414.72 307.584 
" style="fill:none;stroke:#000000;stroke-linecap:square;stroke-linejoin:miter;stroke-width:0.8;"/>
   </g>
   <g id="patch_6">
    <path d="M 57.6 41.472 
L 414.72 41.472 
" style="fill:none;stroke:#000000;stroke-linecap:square;stroke-linejoin:miter;stroke-width:0.8;"/>
   </g>
   <g id="text_17">
    <!-- Gradient of the generator vs V(x) -->
    <g transform="translate(136.2375 35.472)scale(0.12 -0.12)">
     <defs>
      <path d="M 54.890625 33.015625 
L 54.890625 0 
L 45.90625 0 
L 45.90625 32.71875 
Q 45.90625 40.484375 42.875 44.328125 
Q 39.84375 48.1875 33.796875 48.1875 
Q 26.515625 48.1875 22.3125 43.546875 
Q 18.109375 38.921875 18.109375 30.90625 
L 18.109375 0 
L 9.078125 0 
L 9.078125 75.984375 
L 18.109375 75.984375 
L 18.109375 46.1875 
Q 21.34375 51.125 25.703125 53.5625 
Q 30.078125 56 35.796875 56 
Q 45.21875 56 50.046875 50.171875 
Q 54.890625 44.34375 54.890625 33.015625 
z
" id="DejaVuSans-104"/>
      <path d="M 45.40625 27.984375 
Q 45.40625 37.75 41.375 43.109375 
Q 37.359375 48.484375 30.078125 48.484375 
Q 22.859375 48.484375 18.828125 43.109375 
Q 14.796875 37.75 14.796875 27.984375 
Q 14.796875 18.265625 18.828125 12.890625 
Q 22.859375 7.515625 30.078125 7.515625 
Q 37.359375 7.515625 41.375 12.890625 
Q 45.40625 18.265625 45.40625 27.984375 
z
M 54.390625 6.78125 
Q 54.390625 -7.171875 48.1875 -13.984375 
Q 42 -20.796875 29.203125 -20.796875 
Q 24.46875 -20.796875 20.265625 -20.09375 
Q 16.0625 -19.390625 12.109375 -17.921875 
L 12.109375 -9.1875 
Q 16.0625 -11.328125 19.921875 -12.34375 
Q 23.78125 -13.375 27.78125 -13.375 
Q 36.625 -13.375 41.015625 -8.765625 
Q 45.40625 -4.15625 45.40625 5.171875 
L 45.40625 9.625 
Q 42.625 4.78125 38.28125 2.390625 
Q 33.9375 0 27.875 0 
Q 17.828125 0 11.671875 7.65625 
Q 5.515625 15.328125 5.515625 27.984375 
Q 5.515625 40.671875 11.671875 48.328125 
Q 17.828125 56 27.875 56 
Q 33.9375 56 38.28125 53.609375 
Q 42.625 51.21875 45.40625 46.390625 
L 45.40625 54.6875 
L 54.390625 54.6875 
z
" id="DejaVuSans-103"/>
      <path d="M 2.984375 54.6875 
L 12.5 54.6875 
L 29.59375 8.796875 
L 46.6875 54.6875 
L 56.203125 54.6875 
L 35.6875 0 
L 23.484375 0 
z
" id="DejaVuSans-118"/>
      <path d="M 44.28125 53.078125 
L 44.28125 44.578125 
Q 40.484375 46.53125 36.375 47.5 
Q 32.28125 48.484375 27.875 48.484375 
Q 21.1875 48.484375 17.84375 46.4375 
Q 14.5 44.390625 14.5 40.28125 
Q 14.5 37.15625 16.890625 35.375 
Q 19.28125 33.59375 26.515625 31.984375 
L 29.59375 31.296875 
Q 39.15625 29.25 43.1875 25.515625 
Q 47.21875 21.78125 47.21875 15.09375 
Q 47.21875 7.46875 41.1875 3.015625 
Q 35.15625 -1.421875 24.609375 -1.421875 
Q 20.21875 -1.421875 15.453125 -0.5625 
Q 10.6875 0.296875 5.421875 2 
L 5.421875 11.28125 
Q 10.40625 8.6875 15.234375 7.390625 
Q 20.0625 6.109375 24.8125 6.109375 
Q 31.15625 6.109375 34.5625 8.28125 
Q 37.984375 10.453125 37.984375 14.40625 
Q 37.984375 18.0625 35.515625 20.015625 
Q 33.0625 21.96875 24.703125 23.78125 
L 21.578125 24.515625 
Q 13.234375 26.265625 9.515625 29.90625 
Q 5.8125 33.546875 5.8125 39.890625 
Q 5.8125 47.609375 11.28125 51.796875 
Q 16.75 56 26.8125 56 
Q 31.78125 56 36.171875 55.265625 
Q 40.578125 54.546875 44.28125 53.078125 
z
" id="DejaVuSans-115"/>
     </defs>
     <use xlink:href="#DejaVuSans-71"/>
     <use x="77.490234" xlink:href="#DejaVuSans-114"/>
     <use x="118.603516" xlink:href="#DejaVuSans-97"/>
     <use x="179.882812" xlink:href="#DejaVuSans-100"/>
     <use x="243.359375" xlink:href="#DejaVuSans-105"/>
     <use x="271.142578" xlink:href="#DejaVuSans-101"/>
     <use x="332.666016" xlink:href="#DejaVuSans-110"/>
     <use x="396.044922" xlink:href="#DejaVuSans-116"/>
     <use x="435.253906" xlink:href="#DejaVuSans-32"/>
     <use x="467.041016" xlink:href="#DejaVuSans-111"/>
     <use x="528.222656" xlink:href="#DejaVuSans-102"/>
     <use x="563.427734" xlink:href="#DejaVuSans-32"/>
     <use x="595.214844" xlink:href="#DejaVuSans-116"/>
     <use x="634.423828" xlink:href="#DejaVuSans-104"/>
     <use x="697.802734" xlink:href="#DejaVuSans-101"/>
     <use x="759.326172" xlink:href="#DejaVuSans-32"/>
     <use x="791.113281" xlink:href="#DejaVuSans-103"/>
     <use x="854.589844" xlink:href="#DejaVuSans-101"/>
     <use x="916.113281" xlink:href="#DejaVuSans-110"/>
     <use x="979.492188" xlink:href="#DejaVuSans-101"/>
     <use x="1041.015625" xlink:href="#DejaVuSans-114"/>
     <use x="1082.128906" xlink:href="#DejaVuSans-97"/>
     <use x="1143.408203" xlink:href="#DejaVuSans-116"/>
     <use x="1182.617188" xlink:href="#DejaVuSans-111"/>
     <use x="1243.798828" xlink:href="#DejaVuSans-114"/>
     <use x="1284.912109" xlink:href="#DejaVuSans-32"/>
     <use x="1316.699219" xlink:href="#DejaVuSans-118"/>
     <use x="1375.878906" xlink:href="#DejaVuSans-115"/>
     <use x="1427.978516" xlink:href="#DejaVuSans-32"/>
     <use x="1459.765625" xlink:href="#DejaVuSans-86"/>
     <use x="1528.173828" xlink:href="#DejaVuSans-40"/>
     <use x="1567.1875" xlink:href="#DejaVuSans-120"/>
     <use x="1626.367188" xlink:href="#DejaVuSans-41"/>
    </g>
   </g>
   <g id="legend_1">
    <g id="patch_7">
     <path d="M 294.945 153.331375 
L 407.72 153.331375 
Q 409.72 153.331375 409.72 151.331375 
L 409.72 48.472 
Q 409.72 46.472 407.72 46.472 
L 294.945 46.472 
Q 292.945 46.472 292.945 48.472 
L 292.945 151.331375 
Q 292.945 153.331375 294.945 153.331375 
z
" style="fill:#ffffff;opacity:0.8;stroke:#cccccc;stroke-linejoin:miter;"/>
    </g>
    <g id="line2d_22">
     <path d="M 296.945 54.570438 
L 316.945 54.570438 
" style="fill:none;stroke:#0000ff;stroke-linecap:square;stroke-width:1.5;"/>
    </g>
    <g id="line2d_23"/>
    <g id="text_18">
     <!-- total_variation -->
     <g transform="translate(324.945 58.070438)scale(0.1 -0.1)">
      <defs>
       <path d="M 50.984375 -16.609375 
L 50.984375 -23.578125 
L -0.984375 -23.578125 
L -0.984375 -16.609375 
z
" id="DejaVuSans-95"/>
      </defs>
      <use xlink:href="#DejaVuSans-116"/>
      <use x="39.208984" xlink:href="#DejaVuSans-111"/>
      <use x="100.390625" xlink:href="#DejaVuSans-116"/>
      <use x="139.599609" xlink:href="#DejaVuSans-97"/>
      <use x="200.878906" xlink:href="#DejaVuSans-108"/>
      <use x="228.662109" xlink:href="#DejaVuSans-95"/>
      <use x="278.662109" xlink:href="#DejaVuSans-118"/>
      <use x="337.841797" xlink:href="#DejaVuSans-97"/>
      <use x="399.121094" xlink:href="#DejaVuSans-114"/>
      <use x="440.234375" xlink:href="#DejaVuSans-105"/>
      <use x="468.017578" xlink:href="#DejaVuSans-97"/>
      <use x="529.296875" xlink:href="#DejaVuSans-116"/>
      <use x="568.505859" xlink:href="#DejaVuSans-105"/>
      <use x="596.289062" xlink:href="#DejaVuSans-111"/>
      <use x="657.470703" xlink:href="#DejaVuSans-110"/>
     </g>
    </g>
    <g id="line2d_24">
     <path d="M 296.945 69.526688 
L 316.945 69.526688 
" style="fill:none;stroke:#ffa500;stroke-linecap:square;stroke-width:1.5;"/>
    </g>
    <g id="line2d_25"/>
    <g id="text_19">
     <!-- forward_kl -->
     <g transform="translate(324.945 73.026688)scale(0.1 -0.1)">
      <defs>
       <path d="M 4.203125 54.6875 
L 13.1875 54.6875 
L 24.421875 12.015625 
L 35.59375 54.6875 
L 46.1875 54.6875 
L 57.421875 12.015625 
L 68.609375 54.6875 
L 77.59375 54.6875 
L 63.28125 0 
L 52.6875 0 
L 40.921875 44.828125 
L 29.109375 0 
L 18.5 0 
z
" id="DejaVuSans-119"/>
       <path d="M 9.078125 75.984375 
L 18.109375 75.984375 
L 18.109375 31.109375 
L 44.921875 54.6875 
L 56.390625 54.6875 
L 27.390625 29.109375 
L 57.625 0 
L 45.90625 0 
L 18.109375 26.703125 
L 18.109375 0 
L 9.078125 0 
z
" id="DejaVuSans-107"/>
      </defs>
      <use xlink:href="#DejaVuSans-102"/>
      <use x="35.205078" xlink:href="#DejaVuSans-111"/>
      <use x="96.386719" xlink:href="#DejaVuSans-114"/>
      <use x="137.5" xlink:href="#DejaVuSans-119"/>
      <use x="219.287109" xlink:href="#DejaVuSans-97"/>
      <use x="280.566406" xlink:href="#DejaVuSans-114"/>
      <use x="319.929688" xlink:href="#DejaVuSans-100"/>
      <use x="383.40625" xlink:href="#DejaVuSans-95"/>
      <use x="433.40625" xlink:href="#DejaVuSans-107"/>
      <use x="491.316406" xlink:href="#DejaVuSans-108"/>
     </g>
    </g>
    <g id="line2d_26">
     <path d="M 296.945 84.482938 
L 316.945 84.482938 
" style="fill:none;stroke:#800080;stroke-linecap:square;stroke-width:1.5;"/>
    </g>
    <g id="line2d_27"/>
    <g id="text_20">
     <!-- reverse_kl -->
     <g transform="translate(324.945 87.982938)scale(0.1 -0.1)">
      <use xlink:href="#DejaVuSans-114"/>
      <use x="38.863281" xlink:href="#DejaVuSans-101"/>
      <use x="100.386719" xlink:href="#DejaVuSans-118"/>
      <use x="159.566406" xlink:href="#DejaVuSans-101"/>
      <use x="221.089844" xlink:href="#DejaVuSans-114"/>
      <use x="262.203125" xlink:href="#DejaVuSans-115"/>
      <use x="314.302734" xlink:href="#DejaVuSans-101"/>
      <use x="375.826172" xlink:href="#DejaVuSans-95"/>
      <use x="425.826172" xlink:href="#DejaVuSans-107"/>
      <use x="483.736328" xlink:href="#DejaVuSans-108"/>
     </g>
    </g>
    <g id="line2d_28">
     <path d="M 296.945 99.439188 
L 316.945 99.439188 
" style="fill:none;stroke:#008000;stroke-linecap:square;stroke-width:1.5;"/>
    </g>
    <g id="line2d_29"/>
    <g id="text_21">
     <!-- pearson -->
     <g transform="translate(324.945 102.939188)scale(0.1 -0.1)">
      <defs>
       <path d="M 18.109375 8.203125 
L 18.109375 -20.796875 
L 9.078125 -20.796875 
L 9.078125 54.6875 
L 18.109375 54.6875 
L 18.109375 46.390625 
Q 20.953125 51.265625 25.265625 53.625 
Q 29.59375 56 35.59375 56 
Q 45.5625 56 51.78125 48.09375 
Q 58.015625 40.1875 58.015625 27.296875 
Q 58.015625 14.40625 51.78125 6.484375 
Q 45.5625 -1.421875 35.59375 -1.421875 
Q 29.59375 -1.421875 25.265625 0.953125 
Q 20.953125 3.328125 18.109375 8.203125 
z
M 48.6875 27.296875 
Q 48.6875 37.203125 44.609375 42.84375 
Q 40.53125 48.484375 33.40625 48.484375 
Q 26.265625 48.484375 22.1875 42.84375 
Q 18.109375 37.203125 18.109375 27.296875 
Q 18.109375 17.390625 22.1875 11.75 
Q 26.265625 6.109375 33.40625 6.109375 
Q 40.53125 6.109375 44.609375 11.75 
Q 48.6875 17.390625 48.6875 27.296875 
z
" id="DejaVuSans-112"/>
      </defs>
      <use xlink:href="#DejaVuSans-112"/>
      <use x="63.476562" xlink:href="#DejaVuSans-101"/>
      <use x="125" xlink:href="#DejaVuSans-97"/>
      <use x="186.279297" xlink:href="#DejaVuSans-114"/>
      <use x="227.392578" xlink:href="#DejaVuSans-115"/>
      <use x="279.492188" xlink:href="#DejaVuSans-111"/>
      <use x="340.673828" xlink:href="#DejaVuSans-110"/>
     </g>
    </g>
    <g id="line2d_30">
     <path d="M 296.945 114.117313 
L 316.945 114.117313 
" style="fill:none;stroke:#ffc0cb;stroke-linecap:square;stroke-width:1.5;"/>
    </g>
    <g id="line2d_31"/>
    <g id="text_22">
     <!-- hellinger -->
     <g transform="translate(324.945 117.617313)scale(0.1 -0.1)">
      <use xlink:href="#DejaVuSans-104"/>
      <use x="63.378906" xlink:href="#DejaVuSans-101"/>
      <use x="124.902344" xlink:href="#DejaVuSans-108"/>
      <use x="152.685547" xlink:href="#DejaVuSans-108"/>
      <use x="180.46875" xlink:href="#DejaVuSans-105"/>
      <use x="208.251953" xlink:href="#DejaVuSans-110"/>
      <use x="271.630859" xlink:href="#DejaVuSans-103"/>
      <use x="335.107422" xlink:href="#DejaVuSans-101"/>
      <use x="396.630859" xlink:href="#DejaVuSans-114"/>
     </g>
    </g>
    <g id="line2d_32">
     <path d="M 296.945 128.795438 
L 316.945 128.795438 
" style="fill:none;stroke:#808080;stroke-linecap:square;stroke-width:1.5;"/>
    </g>
    <g id="line2d_33"/>
    <g id="text_23">
     <!-- jensen_shannon -->
     <g transform="translate(324.945 132.295438)scale(0.1 -0.1)">
      <defs>
       <path d="M 9.421875 54.6875 
L 18.40625 54.6875 
L 18.40625 -0.984375 
Q 18.40625 -11.421875 14.421875 -16.109375 
Q 10.453125 -20.796875 1.609375 -20.796875 
L -1.8125 -20.796875 
L -1.8125 -13.1875 
L 0.59375 -13.1875 
Q 5.71875 -13.1875 7.5625 -10.8125 
Q 9.421875 -8.453125 9.421875 -0.984375 
z
M 9.421875 75.984375 
L 18.40625 75.984375 
L 18.40625 64.59375 
L 9.421875 64.59375 
z
" id="DejaVuSans-106"/>
      </defs>
      <use xlink:href="#DejaVuSans-106"/>
      <use x="27.783203" xlink:href="#DejaVuSans-101"/>
      <use x="89.306641" xlink:href="#DejaVuSans-110"/>
      <use x="152.685547" xlink:href="#DejaVuSans-115"/>
      <use x="204.785156" xlink:href="#DejaVuSans-101"/>
      <use x="266.308594" xlink:href="#DejaVuSans-110"/>
      <use x="329.6875" xlink:href="#DejaVuSans-95"/>
      <use x="379.6875" xlink:href="#DejaVuSans-115"/>
      <use x="431.787109" xlink:href="#DejaVuSans-104"/>
      <use x="495.166016" xlink:href="#DejaVuSans-97"/>
      <use x="556.445312" xlink:href="#DejaVuSans-110"/>
      <use x="619.824219" xlink:href="#DejaVuSans-110"/>
      <use x="683.203125" xlink:href="#DejaVuSans-111"/>
      <use x="744.384766" xlink:href="#DejaVuSans-110"/>
     </g>
    </g>
    <g id="line2d_34">
     <path d="M 296.945 143.751688 
L 316.945 143.751688 
" style="fill:none;stroke:#000000;stroke-linecap:square;stroke-width:1.5;"/>
    </g>
    <g id="line2d_35"/>
    <g id="text_24">
     <!-- piecewise -->
     <g transform="translate(324.945 147.251688)scale(0.1 -0.1)">
      <defs>
       <path d="M 48.78125 52.59375 
L 48.78125 44.1875 
Q 44.96875 46.296875 41.140625 47.34375 
Q 37.3125 48.390625 33.40625 48.390625 
Q 24.65625 48.390625 19.8125 42.84375 
Q 14.984375 37.3125 14.984375 27.296875 
Q 14.984375 17.28125 19.8125 11.734375 
Q 24.65625 6.203125 33.40625 6.203125 
Q 37.3125 6.203125 41.140625 7.25 
Q 44.96875 8.296875 48.78125 10.40625 
L 48.78125 2.09375 
Q 45.015625 0.34375 40.984375 -0.53125 
Q 36.96875 -1.421875 32.421875 -1.421875 
Q 20.0625 -1.421875 12.78125 6.34375 
Q 5.515625 14.109375 5.515625 27.296875 
Q 5.515625 40.671875 12.859375 48.328125 
Q 20.21875 56 33.015625 56 
Q 37.15625 56 41.109375 55.140625 
Q 45.0625 54.296875 48.78125 52.59375 
z
" id="DejaVuSans-99"/>
      </defs>
      <use xlink:href="#DejaVuSans-112"/>
      <use x="63.476562" xlink:href="#DejaVuSans-105"/>
      <use x="91.259766" xlink:href="#DejaVuSans-101"/>
      <use x="152.783203" xlink:href="#DejaVuSans-99"/>
      <use x="207.763672" xlink:href="#DejaVuSans-101"/>
      <use x="269.287109" xlink:href="#DejaVuSans-119"/>
      <use x="351.074219" xlink:href="#DejaVuSans-105"/>
      <use x="378.857422" xlink:href="#DejaVuSans-115"/>
      <use x="430.957031" xlink:href="#DejaVuSans-101"/>
     </g>
    </g>
   </g>
  </g>
 </g>
 <defs>
  <clipPath id="p0501c4b2de">
   <rect height="266.112" width="357.12" x="57.6" y="41.472"/>
  </clipPath>
 </defs>
</svg>
